# xmcd
#
# Track frame offsets:
# 150
# 13195
# 25085
# 36878
# 48993
# 62963
# 73793
# 82233
# 98940
# 108680
# 126625
# 141343
# 152985
# 163888
# 177005
# 188735
#
# Disc length: 2677 seconds
#
# Revision: 0
# Processed by: cddbd v1.5PL3 Copyright (c) Steve Scherf et al.
# Submitted via: plextools 2.11
#
DISCID=f00a7310
DTITLE=Greggy G. - Have Bass, Will Travel
DYEAR=1900
DGENRE=Pop
TTITLE0=Greggy G. - Roller Coaster
TTITLE1=Greggy G. - Midnight Special
TTITLE2=Greggy G. - Red Hot
TTITLE3=Greggy G. - Honky Tonk Man
TTITLE4=Greggy G. - Dig That Boogie
TTITLE5=Greggy G. - Hot Rod Boogie
TTITLE6=Greggy G. - Granddaddy's Rockin
TTITLE7=Greggy G. - Danny
TTITLE8=Greggy G. - Red For Danger
TTITLE9=Greggy G. - T-Bone Shuffle
TTITLE10=Greggy G. - Blue Skies
TTITLE11=Greggy G. - Tennessee Rockin
TTITLE12=Greggy G. - Morse Code
TTITLE13=Greggy G. - Tell Me Baby
TTITLE14=Greggy G. - Oh Darling
TTITLE15=Greggy G. - Jump jive Boogie
EXTD=
EXTT0=
EXTT1=
EXTT2=
EXTT3=
EXTT4=
EXTT5=
EXTT6=
EXTT7=
EXTT8=
EXTT9=
EXTT10=
EXTT11=
EXTT12=
EXTT13=
EXTT14=
EXTT15=
PLAYORDER=
